<svg xmlns="http://www.w3.org/2000/svg" viewBox="0 0 108.07 112.12"><defs><style>.cls-1{fill:#a69079;}</style></defs><title>premium_circle</title><g id="Layer_2" data-name="Layer 2"><g id="Layer_1-2" data-name="Layer 1"><path class="cls-1" d="M28.43,16.39l-.73.44-3.32-5.47.74-.45.29.48a1.62,1.62,0,0,1,.8-1.24,2,2,0,0,1,1.54-.28,2.64,2.64,0,0,1,1.59,1.3,2.67,2.67,0,0,1,.44,2,2,2,0,0,1-1,1.24,1.46,1.46,0,0,1-1.5.1ZM26,11.61a1.41,1.41,0,0,0,.17,1.1l.31.52a1.48,1.48,0,0,0,1,.67,1.21,1.21,0,0,0,.94-.11,1,1,0,0,0,.47-.64,2,2,0,0,0-.36-1.49,1.87,1.87,0,0,0-1.08-1,1.1,1.1,0,0,0-.84.11A1.25,1.25,0,0,0,26,11.61Z"/><path class="cls-1" d="M33.31,6.51l.39.86a2.07,2.07,0,0,0-.44.15,1.69,1.69,0,0,0-.86,1,2.5,2.5,0,0,0-.18,1.17l1,2.23-.78.36-2-4.38.78-.36.5,1.1a2.94,2.94,0,0,1,.18-.75A2.49,2.49,0,0,1,33.31,6.51Z"/><path class="cls-1" d="M36.06,6.1A2.08,2.08,0,0,1,37.34,5,2.12,2.12,0,0,1,39,5.17a2.52,2.52,0,0,1,1.15,1.57L36.85,7.83A1.85,1.85,0,0,0,37.67,9,1.38,1.38,0,0,0,38.73,9a1.21,1.21,0,0,0,.74-.52.92.92,0,0,0,.07-.74l.9-.3a2.39,2.39,0,0,1-.17,1.28,2.07,2.07,0,0,1-1.3,1,2.25,2.25,0,0,1-1.79-.09A2.49,2.49,0,0,1,36,8.12,2.55,2.55,0,0,1,36.06,6.1Zm.76.24a1.37,1.37,0,0,0-.14.82L39,6.39a1,1,0,0,0-.56-.62,1.31,1.31,0,0,0-1.62.57Z"/><path class="cls-1" d="M43.73,8.31l-.85.14L42.11,3.7,43,3.56l.12.72a1.59,1.59,0,0,1,1.14-1,1.66,1.66,0,0,1,1.3.23,1.77,1.77,0,0,1,.41.41,1.76,1.76,0,0,1,1.39-1.14A1.48,1.48,0,0,1,48.44,3a1.3,1.3,0,0,1,.57.87l.57,3.52-.84.13-.55-3.35A.53.53,0,0,0,48,3.76a.79.79,0,0,0-.64-.16,1.29,1.29,0,0,0-.91.54,1,1,0,0,0-.24.69l.49,3L45.81,8l-.54-3.31a.73.73,0,0,0-.33-.47.86.86,0,0,0-.67-.11,1.13,1.13,0,0,0-.75.47,1.06,1.06,0,0,0-.27.78Z"/><path class="cls-1" d="M51.61,0l.86,0,0,1.12-.86,0Zm.09,2.49.85,0,.17,4.81-.86,0Z"/><path class="cls-1" d="M55.35,2.44l.86.06L56,5.71a1,1,0,0,0,.2.79.82.82,0,0,0,.59.26,1.36,1.36,0,0,0,1-.37,1.88,1.88,0,0,0,.73-1.29l.16-2.44.86,0-.31,4.8-.86,0,.06-.86a2,2,0,0,1-1.74.84A1.8,1.8,0,0,1,55.45,7a1.32,1.32,0,0,1-.32-1Z"/><path class="cls-1" d="M62.2,7.9l-.83-.19,1-4.7.84.19-.16.71a1.56,1.56,0,0,1,1.44-.51,1.7,1.7,0,0,1,1.12.69,1.64,1.64,0,0,1,.23.53,1.76,1.76,0,0,1,1.71-.54,1.41,1.41,0,0,1,1,.61,1.33,1.33,0,0,1,.22,1L68,9.19,67.15,9l.74-3.31a.61.61,0,0,0-.07-.46.85.85,0,0,0-.53-.38A1.34,1.34,0,0,0,66.24,5a1,1,0,0,0-.48.56l-.66,3-.84-.18L65,5.08a.72.72,0,0,0-.14-.55.85.85,0,0,0-.58-.35,1.14,1.14,0,0,0-.88.15,1.13,1.13,0,0,0-.53.63Z"/><path class="cls-1" d="M74,13.26l-.76-.38,2.86-5.73.77.39L76.6,8a1.61,1.61,0,0,1,1.48,0,1.94,1.94,0,0,1,1,1.15,2.57,2.57,0,0,1-.25,2,2.71,2.71,0,0,1-1.49,1.46,2,2,0,0,1-1.56-.16A1.45,1.45,0,0,1,75,11.34Zm2.77-4.57a1.38,1.38,0,0,0-.84.73l-.27.54a1.48,1.48,0,0,0-.06,1.17,1.16,1.16,0,0,0,.59.73,1,1,0,0,0,.79.06A2,2,0,0,0,78,10.82a1.87,1.87,0,0,0,.23-1.42,1,1,0,0,0-.54-.65A1.19,1.19,0,0,0,76.75,8.69Z"/><path class="cls-1" d="M84.93,12.1l-.51.8a2.15,2.15,0,0,0-.37-.3,1.71,1.71,0,0,0-1.32-.18,2.67,2.67,0,0,0-1.08.47L80.32,15l-.72-.47,2.62-4,.72.47-.65,1a3.43,3.43,0,0,1,.72-.25A2.51,2.51,0,0,1,84.93,12.1Z"/><path class="cls-1" d="M86.75,14.21a2.08,2.08,0,0,1,1.58.52,2.11,2.11,0,0,1,.78,1.48A2.49,2.49,0,0,1,88.4,18L85.72,15.8a1.8,1.8,0,0,0-.52,1.31,1.34,1.34,0,0,0,.52.92,1.18,1.18,0,0,0,.83.35,1,1,0,0,0,.67-.34l.73.6a2.26,2.26,0,0,1-1.17.54,2.08,2.08,0,0,1-1.55-.55,2.29,2.29,0,0,1-.89-1.56,2.82,2.82,0,0,1,2.41-2.86ZM87,15a1.43,1.43,0,0,0-.76.32l1.89,1.56A1.09,1.09,0,0,0,88.3,16a1.14,1.14,0,0,0-.47-.78A1.16,1.16,0,0,0,87,15Z"/><path class="cls-1" d="M89,21.87l-.58-.65L92,18l.58.64-.55.49a1.58,1.58,0,0,1,1.47.41A1.72,1.72,0,0,1,94,20.78a1.58,1.58,0,0,1-.13.57,1.75,1.75,0,0,1,1.71.55A1.43,1.43,0,0,1,96,23a1.31,1.31,0,0,1-.41.95l-2.66,2.38-.58-.64,2.53-2.27A.57.57,0,0,0,95.1,23a.85.85,0,0,0-.21-.62,1.31,1.31,0,0,0-.94-.48,1,1,0,0,0-.71.17l-2.28,2-.57-.64,2.5-2.24a.7.7,0,0,0,.21-.53.9.9,0,0,0-.27-.63,1.15,1.15,0,0,0-.8-.38,1.1,1.1,0,0,0-.8.2Z"/><path class="cls-1" d="M98.16,25.44l.49.71-4,2.74-.49-.7Zm2-1.42.49.71-.91.64-.49-.71Z"/><path class="cls-1" d="M100.19,28.48l.42.75L97.8,30.79a1,1,0,0,0-.55.61.82.82,0,0,0,.1.63,1.37,1.37,0,0,0,.86.65,1.87,1.87,0,0,0,1.47-.08l2.15-1.2.41.75L98,34.5l-.42-.75.75-.42a2,2,0,0,1-1.64-1A1.78,1.78,0,0,1,96.44,31a1.31,1.31,0,0,1,.68-.82Z"/><path class="cls-1" d="M99.32,37.21,99,36.4l4.52-1.66.3.81-.69.25a1.57,1.57,0,0,1,1.21.93,1.69,1.69,0,0,1,0,1.32,1.78,1.78,0,0,1-.33.48,1.71,1.71,0,0,1,1.38,1.14,1.45,1.45,0,0,1,0,1.14,1.26,1.26,0,0,1-.74.73l-3.34,1.23-.3-.8,3.18-1.17a.6.6,0,0,0,.35-.31.84.84,0,0,0,0-.66,1.31,1.31,0,0,0-.7-.79.94.94,0,0,0-.72-.1L100.34,40l-.29-.8L103.19,38a.78.78,0,0,0,.4-.42.89.89,0,0,0,0-.68,1.11,1.11,0,0,0-.61-.65,1.09,1.09,0,0,0-.82-.11Z"/><path class="cls-1" d="M101.18,50l-.09-.85,6.36-.69.09.86-.55.06a1.62,1.62,0,0,1,.78,1.25,2,2,0,0,1-.4,1.51,2.54,2.54,0,0,1-1.85.89,2.61,2.61,0,0,1-2-.47,2,2,0,0,1-.72-1.39,1.49,1.49,0,0,1,.54-1.4Zm5.34-.14a1.39,1.39,0,0,0-1.07-.32l-.6.07a1.46,1.46,0,0,0-1,.58,1.25,1.25,0,0,0-.29.9,1,1,0,0,0,.38.69,2,2,0,0,0,1.5.31,1.82,1.82,0,0,0,1.32-.57,1,1,0,0,0,.26-.81A1.18,1.18,0,0,0,106.52,49.87Z"/><path class="cls-1" d="M108.07,58.6h-.95a2,2,0,0,0,0-.47,1.69,1.69,0,0,0-.55-1.21,2.46,2.46,0,0,0-1-.65l-2.45,0v-.86l4.81,0v.86h-1.21a3.71,3.71,0,0,1,.6.48A2.5,2.5,0,0,1,108.07,58.6Z"/><path class="cls-1" d="M107.28,61.27a2.25,2.25,0,0,1-.41,3.07,2.52,2.52,0,0,1-1.91.38l.42-3.46a1.84,1.84,0,0,0-1.38.27,1.36,1.36,0,0,0-.5.93,1.23,1.23,0,0,0,.16.89.94.94,0,0,0,.64.38l-.11.94a2.28,2.28,0,0,1-1.08-.7,2.09,2.09,0,0,1-.38-1.6,2.31,2.31,0,0,1,.84-1.58,2.48,2.48,0,0,1,1.92-.47A2.56,2.56,0,0,1,107.28,61.27Zm-.55.59a1.41,1.41,0,0,0-.67-.48l-.3,2.44a1.08,1.08,0,0,0,.81-.25,1.13,1.13,0,0,0,.4-.82A1.16,1.16,0,0,0,106.73,61.86Z"/><path class="cls-1" d="M102,67.29l.23-.83,4.64,1.31-.24.83-.7-.2a1.55,1.55,0,0,1,.43,1.46,1.65,1.65,0,0,1-.75,1.08,2,2,0,0,1-.55.21,1.72,1.72,0,0,1,.45,1.73,1.48,1.48,0,0,1-.67.93,1.3,1.3,0,0,1-1,.15l-3.43-1,.23-.82,3.27.92a.57.57,0,0,0,.46,0,.83.83,0,0,0,.41-.51,1.31,1.31,0,0,0-.11-1,.94.94,0,0,0-.52-.51l-2.94-.83.24-.83,3.22.92a.77.77,0,0,0,.57-.11.92.92,0,0,0,.38-.56,1.09,1.09,0,0,0-.11-.88,1.05,1.05,0,0,0-.6-.57Z"/><path class="cls-1" d="M103.92,77l-.34.79-4.43-1.88.34-.79Zm2.29,1-.33.79-1-.43.33-.79Z"/><path class="cls-1" d="M102.44,80.29,102,81,99.2,79.5a1,1,0,0,0-.8-.15.86.86,0,0,0-.48.43,1.36,1.36,0,0,0-.09,1.07,1.9,1.9,0,0,0,.86,1.2l2.15,1.18-.41.75-4.23-2.3.41-.76.76.41a2,2,0,0,1,0-1.92,1.82,1.82,0,0,1,1-1,1.35,1.35,0,0,1,1,.14Z"/><path class="cls-1" d="M94.59,84.2l.53-.68,3.82,2.93-.53.68-.58-.44a1.58,1.58,0,0,1-.13,1.52,1.63,1.63,0,0,1-1.69.71,1.72,1.72,0,0,1-.22,1.78,1.47,1.47,0,0,1-1,.61,1.28,1.28,0,0,1-1-.23L91,88.91l.52-.68,2.69,2.06a.58.58,0,0,0,.45.13.86.86,0,0,0,.57-.32,1.35,1.35,0,0,0,.29-1,.94.94,0,0,0-.3-.67l-2.42-1.85.52-.69,2.66,2a.74.74,0,0,0,.57.11.83.83,0,0,0,.56-.38,1.14,1.14,0,0,0,.23-.86A1.11,1.11,0,0,0,97,86Z"/><path class="cls-1" d="M84.76,92.66l.67-.54,4,5-.67.54-.35-.43a1.61,1.61,0,0,1-.64,1.33A2,2,0,0,1,86.3,99,2.59,2.59,0,0,1,84.56,98a2.68,2.68,0,0,1-.71-2,2,2,0,0,1,.79-1.35,1.45,1.45,0,0,1,1.47-.3Zm3,4.42A1.42,1.42,0,0,0,87.46,96l-.38-.47A1.5,1.5,0,0,0,86,95a1.17,1.17,0,0,0-.91.24,1,1,0,0,0-.38.69,2,2,0,0,0,.54,1.44,1.93,1.93,0,0,0,1.2.8,1.1,1.1,0,0,0,.82-.22A1.21,1.21,0,0,0,87.77,97.08Z"/><path class="cls-1" d="M81.27,103.09l-.5-.8a2.16,2.16,0,0,0,.42-.22,1.71,1.71,0,0,0,.72-1.11,2.61,2.61,0,0,0,0-1.18l-1.31-2.07.73-.46,2.57,4.06-.72.46-.65-1a3.12,3.12,0,0,1-.07.76A2.5,2.5,0,0,1,81.27,103.09Z"/><path class="cls-1" d="M78.6,103.87a2.11,2.11,0,0,1-1.13,1.22,2.13,2.13,0,0,1-1.68.09,2.49,2.49,0,0,1-1.34-1.4l3.13-1.52a1.88,1.88,0,0,0-1-1,1.32,1.32,0,0,0-1.06.09,1.14,1.14,0,0,0-.66.61,1,1,0,0,0,0,.74l-.85.42a2.33,2.33,0,0,1,0-1.29,2.08,2.08,0,0,1,1.14-1.18,2.27,2.27,0,0,1,1.79-.15,2.53,2.53,0,0,1,1.43,1.36A2.57,2.57,0,0,1,78.6,103.87Zm-.79-.14a1.46,1.46,0,0,0,0-.83L75.64,104a1.07,1.07,0,0,0,.64.55,1.21,1.21,0,0,0,.91-.11A1.18,1.18,0,0,0,77.81,103.73Z"/><path class="cls-1" d="M70.7,102.71l.82-.25,1.4,4.6-.82.25-.21-.7a1.58,1.58,0,0,1-1,1.16,1.69,1.69,0,0,1-1.32,0,1.75,1.75,0,0,1-.46-.35,1.73,1.73,0,0,1-1.22,1.31,1.43,1.43,0,0,1-1.14-.05,1.31,1.31,0,0,1-.69-.78l-1-3.41.83-.25,1,3.24a.53.53,0,0,0,.29.36.83.83,0,0,0,.65.08,1.36,1.36,0,0,0,.83-.66,1,1,0,0,0,.14-.72l-.89-2.92.82-.25,1,3.21a.76.76,0,0,0,.4.42.87.87,0,0,0,.68,0,1.14,1.14,0,0,0,.68-.56,1.09,1.09,0,0,0,.15-.82Z"/><path class="cls-1" d="M63.59,109.52l-.84.15-.82-4.75.85-.14ZM64,112l-.85.14L63,111l.85-.14Z"/><path class="cls-1" d="M60,110.09l-.86.06-.23-3.22a1,1,0,0,0-.31-.75A.81.81,0,0,0,58,106a1.36,1.36,0,0,0-1,.5,1.9,1.9,0,0,0-.55,1.37l.18,2.45-.86.06-.34-4.8.85-.06.07.85a2,2,0,0,1,1.6-1.06,1.77,1.77,0,0,1,1.31.3,1.3,1.3,0,0,1,.46.95Z"/><path class="cls-1" d="M46.2,105l.84.18-1,4.7-.84-.18.15-.71a1.56,1.56,0,0,1-1.43.52,1.68,1.68,0,0,1-1.13-.68,1.93,1.93,0,0,1-.24-.53,1.72,1.72,0,0,1-1.7.55,1.45,1.45,0,0,1-1-.6,1.38,1.38,0,0,1-.22-1l.76-3.48.84.18-.72,3.32a.54.54,0,0,0,.08.45.81.81,0,0,0,.53.38,1.32,1.32,0,0,0,1-.17.93.93,0,0,0,.47-.56l.64-3,.84.18-.7,3.28a.74.74,0,0,0,.14.56.86.86,0,0,0,.59.34,1.09,1.09,0,0,0,.87-.16,1.13,1.13,0,0,0,.53-.63Z"/><path class="cls-1" d="M34.4,99.72l.77.37-2.82,5.75-.78-.38.25-.5a1.61,1.61,0,0,1-1.48,0,2,2,0,0,1-1.06-1.14,2.59,2.59,0,0,1,.23-2A2.7,2.7,0,0,1,31,100.3a2,2,0,0,1,1.56.14,1.46,1.46,0,0,1,.89,1.2Zm-2.74,4.59a1.37,1.37,0,0,0,.84-.74l.27-.54a1.52,1.52,0,0,0,0-1.17,1.2,1.2,0,0,0-.6-.73,1,1,0,0,0-.79,0,2,2,0,0,0-1.07,1.1,1.89,1.89,0,0,0-.22,1.43,1,1,0,0,0,.54.65A1.23,1.23,0,0,0,31.66,104.31Z"/><path class="cls-1" d="M23.45,101l.51-.8a1.94,1.94,0,0,0,.38.29,1.69,1.69,0,0,0,1.31.18,2.56,2.56,0,0,0,1.08-.48l1.32-2.07.72.47-2.59,4-.73-.46.65-1a3.47,3.47,0,0,1-.72.26A2.58,2.58,0,0,1,23.45,101Z"/><path class="cls-1" d="M21.62,98.86A2.13,2.13,0,0,1,20,98.35a2.08,2.08,0,0,1-.79-1.48,2.51,2.51,0,0,1,.69-1.81l2.7,2.19a1.81,1.81,0,0,0,.51-1.3,1.36,1.36,0,0,0-.52-.93,1.22,1.22,0,0,0-.83-.34,1,1,0,0,0-.67.35l-.73-.6a2.31,2.31,0,0,1,1.16-.55,2.15,2.15,0,0,1,1.56.54A2.29,2.29,0,0,1,24,96a2.47,2.47,0,0,1-.63,1.87A2.59,2.59,0,0,1,21.62,98.86Zm-.2-.78a1.39,1.39,0,0,0,.76-.32l-1.9-1.55a1.06,1.06,0,0,0-.22.82,1.21,1.21,0,0,0,.47.78A1.18,1.18,0,0,0,21.42,98.08Z"/><path class="cls-1" d="M19.34,91.21l.57.64-3.57,3.23-.57-.64.54-.49a1.58,1.58,0,0,1-1.47-.4,1.69,1.69,0,0,1-.52-1.22,1.81,1.81,0,0,1,.12-.57,1.74,1.74,0,0,1-1.71-.54,1.47,1.47,0,0,1-.43-1.06,1.33,1.33,0,0,1,.41-1l2.65-2.39.57.64-2.51,2.27a.61.61,0,0,0-.21.42.82.82,0,0,0,.22.62,1.32,1.32,0,0,0,1,.47.89.89,0,0,0,.7-.18l2.27-2,.57.63L15.44,91.9a.74.74,0,0,0-.21.54.88.88,0,0,0,.27.62,1.26,1.26,0,0,0,1.61.17Z"/><path class="cls-1" d="M8.1,89.13l-.49-.7.91-.64.5.7Zm2-1.43L9.65,87l3.93-2.77.5.7Z"/><path class="cls-1" d="M8.08,84.68l-.42-.75,2.81-1.59a1,1,0,0,0,.54-.6.77.77,0,0,0-.11-.63,1.37,1.37,0,0,0-.86-.65,1.87,1.87,0,0,0-1.47.1l-2.14,1.2L6,81l4.19-2.36.42.74-.74.43a2,2,0,0,1,1.64,1,1.74,1.74,0,0,1,.3,1.31,1.37,1.37,0,0,1-.67.83Z"/><path class="cls-1" d="M8.9,76l.3.8L4.7,78.44l-.3-.8.68-.26a1.58,1.58,0,0,1-1.22-.92,1.69,1.69,0,0,1,0-1.32,1.8,1.8,0,0,1,.32-.49,1.72,1.72,0,0,1-1.39-1.13,1.46,1.46,0,0,1,0-1.14,1.32,1.32,0,0,1,.74-.73l3.34-1.26.3.81L3.94,72.39a.61.61,0,0,0-.34.31.84.84,0,0,0,0,.66,1.36,1.36,0,0,0,.71.79,1,1,0,0,0,.72.09l2.86-1.07.3.8L5,75.15a.74.74,0,0,0-.39.42.9.9,0,0,0,0,.68,1.11,1.11,0,0,0,.61.65,1.08,1.08,0,0,0,.82.1Z"/><path class="cls-1" d="M7,63.15l.1.85-6.36.73-.1-.85.56-.07a1.61,1.61,0,0,1-.79-1.25,2,2,0,0,1,.38-1.51,2.65,2.65,0,0,1,1.85-.91,2.72,2.72,0,0,1,2,.46A2,2,0,0,1,5.35,62a1.46,1.46,0,0,1-.53,1.4Zm-5.34.18a1.44,1.44,0,0,0,1.07.31l.6-.07a1.52,1.52,0,0,0,1-.6,1.18,1.18,0,0,0,.28-.89,1,1,0,0,0-.38-.69,2,2,0,0,0-1.51-.31,1.86,1.86,0,0,0-1.31.59,1.08,1.08,0,0,0-.26.8A1.27,1.27,0,0,0,1.61,63.33Z"/><path class="cls-1" d="M0,54.63H1a2,2,0,0,0,0,.48,1.7,1.7,0,0,0,.57,1.2,2.47,2.47,0,0,0,1,.64H4.91v.86l-4.81,0V57H1.3a3.65,3.65,0,0,1-.61-.47A2.47,2.47,0,0,1,0,54.63Z"/><path class="cls-1" d="M.77,52a2.13,2.13,0,0,1-.42-1.61,2.14,2.14,0,0,1,.81-1.46,2.5,2.5,0,0,1,1.9-.39L2.67,52a1.88,1.88,0,0,0,1.38-.28,1.34,1.34,0,0,0,.49-.94,1.16,1.16,0,0,0-.16-.88.94.94,0,0,0-.65-.38l.11-.94a2.28,2.28,0,0,1,1.09.69,2.09,2.09,0,0,1,.38,1.6,2.26,2.26,0,0,1-.83,1.59,2.53,2.53,0,0,1-1.91.48A2.57,2.57,0,0,1,.77,52Zm.54-.59a1.45,1.45,0,0,0,.69.47l.27-2.44a1.11,1.11,0,0,0-.81.26,1.15,1.15,0,0,0-.39.82A1.16,1.16,0,0,0,1.31,51.36Z"/><path class="cls-1" d="M6,45.88l-.23.83L1.11,45.43l.23-.83.71.19a1.57,1.57,0,0,1-.45-1.46,1.72,1.72,0,0,1,.75-1.08A1.84,1.84,0,0,1,2.9,42a1.7,1.7,0,0,1-.46-1.73,1.46,1.46,0,0,1,.65-.93,1.29,1.29,0,0,1,1-.16l3.44.94L7.33,41l-3.27-.9a.56.56,0,0,0-.46,0,.83.83,0,0,0-.41.51,1.33,1.33,0,0,0,.11,1.06,1,1,0,0,0,.53.5L6.77,43l-.23.83L3.31,43a.71.71,0,0,0-.56.11.85.85,0,0,0-.38.56,1.09,1.09,0,0,0,.11.88,1.08,1.08,0,0,0,.6.57Z"/><path class="cls-1" d="M1.73,35.28l.33-.79,1,.43-.33.79Zm2.3,1,.33-.79L8.8,37.29l-.33.8Z"/><path class="cls-1" d="M5.49,32.88l.4-.76,2.84,1.53a1.06,1.06,0,0,0,.8.14.83.83,0,0,0,.48-.43,1.43,1.43,0,0,0,.09-1.08,1.94,1.94,0,0,0-.87-1.2L7.07,29.93l.41-.76,4.24,2.28-.41.75-.76-.4a2,2,0,0,1,0,1.92,1.74,1.74,0,0,1-.95,1,1.3,1.3,0,0,1-1.05-.12Z"/><path class="cls-1" d="M13.3,28.92l-.51.68L9,26.7,9.46,26l.59.44a1.59,1.59,0,0,1,.12-1.52,1.69,1.69,0,0,1,1.1-.73,1.61,1.61,0,0,1,.58,0,1.75,1.75,0,0,1,.22-1.78,1.44,1.44,0,0,1,.95-.62A1.35,1.35,0,0,1,14,22l2.84,2.15-.52.69-2.71-2.05a.58.58,0,0,0-.44-.12.8.8,0,0,0-.57.33,1.35,1.35,0,0,0-.29,1,1,1,0,0,0,.31.66l2.43,1.84-.52.69-2.67-2a.79.79,0,0,0-.57-.1.93.93,0,0,0-.56.38,1.31,1.31,0,0,0,.13,1.61Z"/></g></g></svg>