<svg xmlns="http://www.w3.org/2000/svg" viewBox="0 0 135.41 37.13"><defs><style>.cls-1{fill:#a69079;}</style></defs><title>premium_txt</title><g id="Layer_2" data-name="Layer 2"><g id="Layer_1-2" data-name="Layer 1"><path class="cls-1" d="M20.05,14.94a2.37,2.37,0,0,1,0,.66c0,.29-.08.6-.14.93s-.15.66-.24,1a5.12,5.12,0,0,1-.29.8A9.35,9.35,0,0,1,18.29,20a19.84,19.84,0,0,1-1.76,1.91c-.63.62-1.3,1.22-2,1.82s-1.37,1.14-2.06,1.64-1.68,1.22-2.57,1.8-1.79,1.1-2.67,1.56l.12.69c0,.13.07.33.13.61s.14.59.23.95.18.75.28,1.16.19.81.28,1.2.18.75.25,1.08.13.61.17.82a1.51,1.51,0,0,1-.27,1.23,1.84,1.84,0,0,1-1.18.63c-1.38.25-2.48-2-3.31-6.66q-.1-.61-.18-1.26c0-.43-.09-.89-.12-1.39s-.06-1-.08-1.59,0-1.22-.06-1.93,0-1.16,0-1.7,0-1.08,0-1.61.07-1,.14-1.56.18-1.05.31-1.59c-.29.14-.59.29-.89.46l-1,.52L1.83,19a1.22,1.22,0,0,1-.34.1,1.34,1.34,0,0,1-1-.14A1,1,0,0,1,0,18.2,2.15,2.15,0,0,1,.1,17.12a2.37,2.37,0,0,1,.65-.92A5.92,5.92,0,0,1,2,15.34a20.88,20.88,0,0,1,2-.87c.44-.18.93-.36,1.45-.55L7,13.39c.54-.17,1.06-.32,1.58-.46s1-.24,1.4-.32l1.48-.24c.48-.08.95-.14,1.42-.18s.93-.07,1.4-.08.95,0,1.44,0a6.44,6.44,0,0,1,2.74.71A2.8,2.8,0,0,1,20.05,14.94Zm-8.43.32a23.79,23.79,0,0,0-2.47.57c-.88.25-1.75.52-2.6.82a1.64,1.64,0,0,1,.64,1.1,2.47,2.47,0,0,1,0,.47c0,.26-.06.54-.1.84s-.07.59-.11.85-.06.43-.08.49a3.11,3.11,0,0,0-.06.5c0,.19,0,.4,0,.63s0,.47,0,.71v1.52c0,.23,0,.44,0,.62s0,.35,0,.52,0,.33,0,.51l1-.65c.38-.23.76-.48,1.15-.73l1.13-.75,1-.67.5-.39.58-.44.59-.47.55-.46a16.17,16.17,0,0,0,1.26-1.24,11.35,11.35,0,0,0,1.15-1.46,7.37,7.37,0,0,0,.78-1.49,2.53,2.53,0,0,0,.18-1.34c0-.2-.31-.32-.82-.36a12.4,12.4,0,0,0-2.28,0C12.89,15.06,12.21,15.15,11.62,15.26Z"/><path class="cls-1" d="M34.91,18.56a2.13,2.13,0,0,1,0,.36,1.52,1.52,0,0,1-.1.46,1.19,1.19,0,0,1-.23.43.67.67,0,0,1-.41.25l-.24,0-.41,0-.41.05-.27,0A6.64,6.64,0,0,0,29,22.7a9.62,9.62,0,0,0-.68,1,12.6,12.6,0,0,0-.65,1.22q-.3.66-.57,1.38a14.6,14.6,0,0,0-.43,1.51c-.09.42-.18.86-.26,1.3s-.14.91-.18,1.39c0,.26,0,.49,0,.68a6.21,6.21,0,0,1-.05.69.9.9,0,0,1-.18.44,1.66,1.66,0,0,1-.35.35,4.09,4.09,0,0,1-.46.25,4.5,4.5,0,0,1-.48.16,1.3,1.3,0,0,1-1.42-.62A6.89,6.89,0,0,1,22.45,30c-.05-.25-.09-.49-.12-.71l-.09-.68c0-.23,0-.46-.07-.71s-.05-.53-.08-.85-.08-1-.12-1.63-.08-1.28-.11-1.93-.06-1.29-.08-1.9,0-1.13,0-1.56a2.5,2.5,0,0,1,.37-1.3,1.61,1.61,0,0,1,1.13-.65,1.19,1.19,0,0,1,.49,0,2.62,2.62,0,0,1,.48.22,2.38,2.38,0,0,1,.38.32.85.85,0,0,1,.21.34l.06.26a7.69,7.69,0,0,1,.1,1q0,.56,0,1.2c0,.42,0,.85,0,1.28s0,.85-.06,1.25-.05.76-.06,1.09,0,.62,0,.83c.21-.77.45-1.51.72-2.24a16.72,16.72,0,0,1,.92-2,11,11,0,0,1,1.17-1.76,7.17,7.17,0,0,1,1.45-1.36,9.85,9.85,0,0,1,1.19-.7,3.58,3.58,0,0,1,1-.35,6.11,6.11,0,0,1,1.15-.08,5.06,5.06,0,0,1,1.13.15,2.51,2.51,0,0,1,.89.4A1,1,0,0,1,34.91,18.56Z"/><path class="cls-1" d="M51.11,17.33a2.55,2.55,0,0,1-.22,1,23.82,23.82,0,0,1-1.29,2.43A25.07,25.07,0,0,1,48,23.14a23.9,23.9,0,0,1-1.86,2.15,17.81,17.81,0,0,1-2,1.8A13.31,13.31,0,0,1,42,28.43a8,8,0,0,1-2.18.73,5.22,5.22,0,0,1-4.09-.72,5.86,5.86,0,0,1-2.12-4,17.16,17.16,0,0,1-.23-2.25A12.11,12.11,0,0,1,33.5,20a12.25,12.25,0,0,1,1.71-4.5,4.91,4.91,0,0,1,.62-.82,6.34,6.34,0,0,1,.8-.75,5.76,5.76,0,0,1,.94-.6,3.83,3.83,0,0,1,1-.34A2.83,2.83,0,0,1,40,13a2.77,2.77,0,0,1,1,.61,3.32,3.32,0,0,1,.73,1,5,5,0,0,1,.4,1.29,4.81,4.81,0,0,1-.48,2.83,15.51,15.51,0,0,1-2.15,3.28c-.31.37-.67.78-1.09,1.23s-.89.94-1.4,1.5a1.68,1.68,0,0,0,.32.64,2,2,0,0,0,.59.47,2.55,2.55,0,0,0,.81.24,3.48,3.48,0,0,0,1,0,6.24,6.24,0,0,0,1.46-.45,10.93,10.93,0,0,0,1.49-.75,15.15,15.15,0,0,0,1.4-1,14.14,14.14,0,0,0,1.19-1.06,26.36,26.36,0,0,0,1.77-2c.55-.7,1.08-1.42,1.59-2.14l.63-.9a2.32,2.32,0,0,1,1.23-.95.41.41,0,0,1,.43.13A.63.63,0,0,1,51.11,17.33Zm-11.72-.68a2.43,2.43,0,0,0-.17-.6.5.5,0,0,0-.27-.32,1.81,1.81,0,0,0-1,.6,4.53,4.53,0,0,0-.85,1.38,9,9,0,0,0-.58,2,11.92,11.92,0,0,0-.16,2.52c.39-.42.79-.85,1.18-1.3a10.75,10.75,0,0,0,1-1.38,6.32,6.32,0,0,0,.69-1.44A3,3,0,0,0,39.39,16.65Z"/><path class="cls-1" d="M77.85,12.62a1.42,1.42,0,0,1,0,.35,4.8,4.8,0,0,1-.08.48,5.16,5.16,0,0,1-.16.52q-.09.27-.18.51a9.44,9.44,0,0,1-.48.95c-.2.36-.43.74-.69,1.15s-.53.8-.83,1.21-.59.8-.88,1.15-.52.6-.85.94a10,10,0,0,1-1.06,1,9.32,9.32,0,0,1-1.18.83,3.87,3.87,0,0,1-1.22.45,2.69,2.69,0,0,1-1.13,0A2.37,2.37,0,0,1,68,21.45a5.92,5.92,0,0,1-1.11-1.59,16.24,16.24,0,0,1-1-2.79c0-.11-.07-.29-.13-.53s-.12-.49-.17-.73-.12-.46-.17-.64-.08-.26-.1-.26-.19.15-.33.41-.29.61-.47,1-.37.91-.57,1.45-.41,1.11-.62,1.7-.53,1.41-.78,2A11.92,11.92,0,0,1,61.74,23,4.89,4.89,0,0,1,61,24a1.53,1.53,0,0,1-.81.43,2.09,2.09,0,0,1-1.13-.06,1.84,1.84,0,0,1-.8-.66,4.53,4.53,0,0,1-.58-1.3c-.16-.54-.32-1.19-.48-1.94-.25-1.27-.46-2.25-.64-2.95s-.31-1.05-.41-1-.28.2-.5.55a11.9,11.9,0,0,0-.74,1.39c-.28.58-.58,1.27-.89,2.05s-.64,1.61-1,2.5c-.07.23-.17.5-.29.81l-.35.94c-.12.32-.25.62-.37.92s-.23.56-.33.78a1.81,1.81,0,0,1-.54.68,1.75,1.75,0,0,1-.75.33,2,2,0,0,1-1.06-.07,2,2,0,0,1-.8-.57,3.42,3.42,0,0,1-.56-1,6.52,6.52,0,0,1-.34-1.23c-.07-.4-.12-.75-.16-1.07s-.06-.65-.08-1,0-.68,0-1,0-.78,0-1.26,0-.85-.09-1.3l-.15-1.33c0-.43-.08-.83-.1-1.21a4.77,4.77,0,0,1,0-.93c0-.17,0-.36.09-.56a1.93,1.93,0,0,1,.24-.58,2.05,2.05,0,0,1,.48-.5,1.9,1.9,0,0,1,.79-.31,1.41,1.41,0,0,1,.75,0,1.1,1.1,0,0,1,.5.37,2.25,2.25,0,0,1,.31.62,4.44,4.44,0,0,1,.18.76,6.78,6.78,0,0,1,.08,1c0,.4,0,.85,0,1.34s0,1,0,1.54,0,1-.06,1.54,0,.93,0,1.32,0,.7,0,.92a3.34,3.34,0,0,1,.12-.32l.23-.62c.09-.24.19-.5.29-.78s.19-.53.29-.78.17-.45.23-.64.11-.29.12-.33c.13-.32.27-.68.44-1.08s.34-.81.53-1.22.37-.81.55-1.19.36-.7.53-1a4.63,4.63,0,0,1,1.18-1.35A3.29,3.29,0,0,1,56.26,13a2,2,0,0,1,1.58.35,3.08,3.08,0,0,1,1.07,1.44,8,8,0,0,1,.28.89q.14.54.27,1.14L59.7,18q.12.6.21,1.08c.06.31.12.57.16.77s.08.3.11.29.19-.15.31-.42a8.29,8.29,0,0,0,.39-1c.14-.4.28-.83.43-1.29s.29-.89.43-1.28q.36-.94.78-1.83a14.36,14.36,0,0,1,.88-1.58,7.07,7.07,0,0,1,.89-1.14,1.73,1.73,0,0,1,.83-.51,3.64,3.64,0,0,1,.57,0,3.81,3.81,0,0,1,.59.07,2.21,2.21,0,0,1,.53.18,1,1,0,0,1,.39.28,2.92,2.92,0,0,1,.51.78,7.27,7.27,0,0,1,.35,1c.1.37.19.78.29,1.23s.21.94.37,1.48a10.82,10.82,0,0,0,.87,2.27c.3.53.64.76,1,.7a1.9,1.9,0,0,0,.61-.29,8.74,8.74,0,0,0,.78-.62c.28-.24.57-.51.86-.79s.56-.58.81-.86.53-.62.77-.93l.72-1,.71-1,.76-1.12a1,1,0,0,1,.64-.43C77.58,12,77.77,12.18,77.85,12.62Z"/><path class="cls-1" d="M77.72,1.18a2.91,2.91,0,0,1,0,.93,2.77,2.77,0,0,1-.28.87A2,2,0,0,1,75.9,4a4.57,4.57,0,0,1-.83.07A3.87,3.87,0,0,1,74.28,4a1.58,1.58,0,0,1-.61-.23.64.64,0,0,1-.29-.43,2.23,2.23,0,0,1,.06-1,4,4,0,0,1,.44-1,3.58,3.58,0,0,1,.68-.85,1.62,1.62,0,0,1,.8-.43,5.07,5.07,0,0,1,.9-.09,1.87,1.87,0,0,1,.7.11,1.11,1.11,0,0,1,.49.37A1.66,1.66,0,0,1,77.72,1.18Zm11.06,10.3a2.2,2.2,0,0,1-.11.89,9.15,9.15,0,0,1-.49,1.26q-.33.7-.81,1.53c-.32.54-.68,1.11-1.06,1.69s-.87,1.27-1.37,1.91-1,1.25-1.64,1.86a9.25,9.25,0,0,1-1.77,1.46,4.76,4.76,0,0,1-1.76.72,4.2,4.2,0,0,1-1.81,0,3.82,3.82,0,0,1-1.43-.7,5.21,5.21,0,0,1-1.1-1.19,9.47,9.47,0,0,1-.81-1.51,14.08,14.08,0,0,1-.56-1.66c-.15-.57-.27-1.12-.36-1.64,0-.2-.08-.5-.12-.91s-.07-.85-.1-1.3,0-.9,0-1.33a6.38,6.38,0,0,1,0-1A2.88,2.88,0,0,1,74.21,10a2.65,2.65,0,0,1,1.57-.9c.62-.11,1,.21,1.13,1A6.93,6.93,0,0,1,77,11.2c0,.41,0,.81,0,1.21,0,.73,0,1.38.07,1.95s.12,1.07.2,1.5a10.87,10.87,0,0,0,.33,1.42,7.83,7.83,0,0,0,.47,1.18,2.57,2.57,0,0,0,.57.8.74.74,0,0,0,.66.23,5,5,0,0,0,.88-.24,3.75,3.75,0,0,0,1-.62,17.07,17.07,0,0,0,2.31-2.29c.28-.33.6-.71.95-1.16s.71-.89,1.05-1.36.67-.91,1-1.35.53-.81.7-1.12l.09-.2a2.18,2.18,0,0,1,.14-.25,1.12,1.12,0,0,1,.19-.24.48.48,0,0,1,.22-.12.65.65,0,0,1,.35,0,.84.84,0,0,1,.31.35A1.63,1.63,0,0,1,88.78,11.48Z"/><path class="cls-1" d="M109,5.53a3.55,3.55,0,0,1-.26,1.88,10.9,10.9,0,0,1-1.14,2.22,22.76,22.76,0,0,1-1.71,2.26,23.93,23.93,0,0,1-2,2,16.12,16.12,0,0,1-1.94,1.53,4.57,4.57,0,0,1-1.6.72,3,3,0,0,1-1.64-.12,3.45,3.45,0,0,1-1.25-.87,5.38,5.38,0,0,1-.93-1.38,11.64,11.64,0,0,1-.67-1.67,8.35,8.35,0,0,1-.38,1.22c-.17.45-.36.9-.57,1.34s-.42.86-.64,1.26-.44.75-.63,1a13.24,13.24,0,0,1-.93,1.23,8.55,8.55,0,0,1-1.15,1.1,7.63,7.63,0,0,1-1.36.86,5.54,5.54,0,0,1-1.57.5,2.57,2.57,0,0,1-1.3-.07,2.84,2.84,0,0,1-1-.62,3.38,3.38,0,0,1-.74-1,4.43,4.43,0,0,1-.39-1.2,7.12,7.12,0,0,1-.11-1.15V15.43c0-.42,0-.82,0-1.23a10.71,10.71,0,0,0,0-1.15c0-.29-.06-.59-.1-.91s-.07-.64-.11-1l-.09-1c0-.33,0-.64,0-.92a3.08,3.08,0,0,1,.06-.61A1.6,1.6,0,0,1,85,8.12a1.52,1.52,0,0,1,.45-.42,2,2,0,0,1,.74-.25,1.46,1.46,0,0,1,1.37.31,2.91,2.91,0,0,1,.65,1.58,6.84,6.84,0,0,1,.09.77c0,.29,0,.6,0,.92v1c0,.32,0,.64,0,.94,0,.67-.1,1.33-.13,2a6.89,6.89,0,0,0,.07,1.68,1.56,1.56,0,0,0,.3.74.48.48,0,0,0,.46.23A2.79,2.79,0,0,0,90.21,17a8.55,8.55,0,0,0,1.14-1.18,13.76,13.76,0,0,0,1-1.46c.3-.51.56-1,.76-1.4a8.72,8.72,0,0,0,.53-1.42c.17-.55.32-1.13.47-1.74s.29-1.2.42-1.8.26-1.11.36-1.57a4.17,4.17,0,0,1,.64-1.47,1.42,1.42,0,0,1,.87-.62,1.27,1.27,0,0,1,.85.07,1,1,0,0,1,.4.75q0,.22.06.72c0,.32,0,.66,0,1s0,.71,0,1a6.36,6.36,0,0,0,.08.74c0,.16.06.34.1.56s.09.45.14.69.11.46.17.67l.18.55q.1.24.3.6a4,4,0,0,0,.46.7,3.19,3.19,0,0,0,.53.56.65.65,0,0,0,.54.18,3.89,3.89,0,0,0,1.53-.66,10.72,10.72,0,0,0,1.54-1.32,18.93,18.93,0,0,0,1.52-1.74c.5-.63,1-1.26,1.45-1.88l.57-.8c.18-.26.37-.5.55-.72a6.88,6.88,0,0,1,.51-.54,1,1,0,0,1,.45-.26.52.52,0,0,1,.39.08A.38.38,0,0,1,109,5.53Z"/><path class="cls-1" d="M135.4,2.53a1.43,1.43,0,0,1,0,.35c0,.15,0,.3-.09.48s-.09.34-.15.52-.12.35-.19.51a7.43,7.43,0,0,1-.47.94c-.2.37-.43.75-.69,1.15s-.53.81-.83,1.22-.59.79-.88,1.15-.52.59-.85.94a12.63,12.63,0,0,1-1.06,1,9.34,9.34,0,0,1-1.19.82,3.51,3.51,0,0,1-1.22.46,2.65,2.65,0,0,1-1.12,0,2.46,2.46,0,0,1-1.13-.67,5.83,5.83,0,0,1-1.11-1.6,16.24,16.24,0,0,1-1-2.79c0-.11-.08-.29-.13-.53l-.18-.73c0-.24-.11-.45-.16-.63a.86.86,0,0,0-.1-.27q-.12,0-.33.42c-.13.26-.29.6-.47,1s-.37.9-.57,1.45-.41,1.11-.63,1.69c-.26.74-.52,1.41-.77,2a13.69,13.69,0,0,1-.73,1.52,4.53,4.53,0,0,1-.73,1,1.55,1.55,0,0,1-.81.44,2.09,2.09,0,0,1-1.13-.06,1.74,1.74,0,0,1-.8-.67,4.59,4.59,0,0,1-.58-1.29c-.17-.54-.32-1.19-.48-2-.25-1.26-.46-2.25-.64-2.95s-.32-1-.41-1-.28.21-.5.55a13.74,13.74,0,0,0-.75,1.4c-.27.58-.57,1.26-.89,2s-.63,1.61-.95,2.5c-.08.23-.17.5-.29.81s-.23.62-.35.94l-.37.93c-.12.3-.23.55-.33.77a1.74,1.74,0,0,1-.54.68,1.64,1.64,0,0,1-.76.34,1.92,1.92,0,0,1-1-.08,2,2,0,0,1-.8-.57,3.22,3.22,0,0,1-.56-.95,5.77,5.77,0,0,1-.34-1.24c-.07-.39-.12-.75-.16-1.07s-.07-.64-.08-1,0-.68,0-1.05,0-.78,0-1.25,0-.85-.09-1.3-.1-.9-.15-1.33-.08-.84-.11-1.21a7.31,7.31,0,0,1,0-.94,4.44,4.44,0,0,1,.1-.56,1.58,1.58,0,0,1,.24-.57,1.89,1.89,0,0,1,.48-.5,1.72,1.72,0,0,1,.79-.31,1.31,1.31,0,0,1,.75,0,1.08,1.08,0,0,1,.5.37,2.06,2.06,0,0,1,.31.61c.07.24.13.5.18.77a5.68,5.68,0,0,1,.07,1q0,.61,0,1.35c0,.49,0,1,0,1.54s0,1.05-.06,1.53,0,.94-.05,1.33,0,.7,0,.91c0,0,.05-.14.12-.31l.23-.62.29-.78c.1-.28.19-.54.28-.78l.24-.64q.1-.27.12-.33c.12-.32.27-.68.44-1.08s.34-.81.53-1.23.37-.81.55-1.19.36-.7.52-1a5.1,5.1,0,0,1,1.19-1.35,3.47,3.47,0,0,1,1.48-.65,2,2,0,0,1,1.58.35,3.16,3.16,0,0,1,1.07,1.45c.09.23.18.53.28.89s.18.74.26,1.13.17.8.25,1.2.15.76.21,1.08.12.58.16.78.08.29.11.29.19-.16.31-.43a10.06,10.06,0,0,0,.39-1c.14-.4.28-.84.43-1.3s.29-.89.43-1.28c.24-.62.5-1.23.78-1.82A12.18,12.18,0,0,1,121,2.68a6.28,6.28,0,0,1,.89-1.14,1.55,1.55,0,0,1,.83-.51,2.69,2.69,0,0,1,.57,0,2.32,2.32,0,0,1,.59.07,2.19,2.19,0,0,1,.53.17,1.3,1.3,0,0,1,.39.28,3,3,0,0,1,.51.79,5.72,5.72,0,0,1,.34,1c.1.37.2.78.29,1.23s.22,1,.38,1.48a10.6,10.6,0,0,0,.87,2.27c.3.54.64.77,1,.7a1.55,1.55,0,0,0,.61-.29c.24-.17.5-.37.78-.61s.57-.51.86-.8.56-.57.81-.86.53-.61.77-.93l.72-1c.23-.33.47-.67.71-1l.76-1.12a.94.94,0,0,1,.64-.42C135.13,1.89,135.32,2.09,135.4,2.53Z"/></g></g></svg>